<?xml version="1.0" encoding="utf-8"?>
<!-- Generator: Adobe Illustrator 25.0.1, SVG Export Plug-In . SVG Version: 6.00 Build 0)  -->
<svg version="1.1" id="Layer_1" focusable="false" xmlns="http://www.w3.org/2000/svg" xmlns:xlink="http://www.w3.org/1999/xlink"
	 x="0px" y="0px" viewBox="0 0 640 640" style="enable-background:new 0 0 640 640;" xml:space="preserve">
<style type="text/css">
	.st0{fill:#737373;}
</style>
<path class="st0" d="M512.1,255l-8.2,14.3c-3,5.3-9.4,7.5-15.1,5.4c-11.8-4.4-22.6-10.7-32.1-18.6c-4.6-3.8-5.8-10.5-2.8-15.7
	l8.2-14.3c-6.9-8-12.3-17.3-15.9-27.4h-16.5c-6,0-11.2-4.3-12.2-10.3c-2-12-2.1-24.6,0-37.1c1-6,6.2-10.4,12.2-10.4h16.5
	c3.6-10.1,9-19.4,15.9-27.4l-8.2-14.3c-3-5.2-1.9-11.9,2.8-15.7c9.5-7.9,20.4-14.2,32.1-18.6c5.7-2.1,12.1,0.1,15.1,5.4l8.2,14.3
	c10.5-1.9,21.2-1.9,31.7,0l8.2-14.3c3-5.3,9.4-7.5,15.1-5.4c11.8,4.4,22.6,10.7,32.1,18.6c4.6,3.8,5.8,10.5,2.8,15.7l-8.2,14.3
	c6.9,8,12.3,17.3,15.9,27.4h16.5c6,0,11.2,4.3,12.2,10.3c2,12,2.1,24.6,0,37.1c-1,6-6.2,10.4-12.2,10.4h-16.5
	c-3.6,10.1-9,19.4-15.9,27.4l8.2,14.3c3,5.2,1.9,11.9-2.8,15.7c-9.5,7.9-20.4,14.2-32.1,18.6c-5.7,2.1-12.1-0.1-15.1-5.4l-8.2-14.3
	C533.4,256.9,522.6,256.9,512.1,255z M501.6,196.2c38.5,29.6,82.4-14.3,52.8-52.8C515.9,113.7,472,157.7,501.6,196.2z M386.3,350.1
	l33.7,16.8c10.1,5.8,14.5,18.1,10.5,29.1c-8.9,24.2-26.4,46.4-42.6,65.8c-7.4,8.9-20.2,11.1-30.3,5.3l-29.1-16.8
	c-16,13.7-34.6,24.6-54.9,31.7v33.6c0,11.6-8.3,21.6-19.7,23.6c-24.6,4.2-50.4,4.4-75.9,0c-11.5-2-20-11.9-20-23.6V482
	c-20.3-7.2-38.9-18-54.9-31.7L74,467c-10,5.8-22.9,3.6-30.3-5.3C27.5,442.3,10.4,420.1,1.5,396c-4-10.9,0.4-23.2,10.5-29.1
	l33.3-16.8c-3.9-20.9-3.9-42.4,0-63.4L12,269.8c-10.1-5.8-14.6-18.1-10.5-29c8.9-24.2,26-46.4,42.2-65.8c7.4-8.9,20.2-11.1,30.3-5.3
	l29.1,16.8c16-13.7,34.6-24.6,54.9-31.7v-33.7c0-11.5,8.2-21.5,19.6-23.5c24.6-4.2,50.5-4.4,76-0.1c11.5,2,20,11.9,20,23.6v33.6
	c20.3,7.2,38.9,18,54.9,31.7l29.1-16.8c10-5.8,22.9-3.6,30.3,5.3c16.2,19.4,33.2,41.6,42.1,65.8c4,10.9,0.1,23.2-10,29.1l-33.7,16.8
	C390.2,307.6,390.2,329.1,386.3,350.1z M268.7,371.2c59.2-77-28.7-164.9-105.7-105.7C103.8,342.5,191.7,430.4,268.7,371.2z
	 M512.1,553.9l-8.2,14.3c-3,5.3-9.4,7.5-15.1,5.4c-11.8-4.4-22.6-10.7-32.1-18.6c-4.6-3.8-5.8-10.5-2.8-15.7l8.2-14.3
	c-6.9-8-12.3-17.3-15.9-27.4h-16.5c-6,0-11.2-4.3-12.2-10.3c-2-12-2.1-24.6,0-37.1c1-6,6.2-10.4,12.2-10.4h16.5
	c3.6-10.1,9-19.4,15.9-27.4l-8.2-14.3c-3-5.2-1.9-11.9,2.8-15.7c9.5-7.9,20.4-14.2,32.1-18.6c5.7-2.1,12.1,0.1,15.1,5.4l8.2,14.3
	c10.5-1.9,21.2-1.9,31.7,0l8.2-14.3c3-5.3,9.4-7.5,15.1-5.4c11.8,4.4,22.6,10.7,32.1,18.6c4.6,3.8,5.8,10.5,2.8,15.7l-8.2,14.3
	c6.9,8,12.3,17.3,15.9,27.4h16.5c6,0,11.2,4.3,12.2,10.3c2,12,2.1,24.6,0,37.1c-1,6-6.2,10.4-12.2,10.4h-16.5
	c-3.6,10.1-9,19.4-15.9,27.4l8.2,14.3c3,5.2,1.9,11.9-2.8,15.7c-9.5,7.9-20.4,14.2-32.1,18.6c-5.7,2.1-12.1-0.1-15.1-5.4l-8.2-14.3
	C533.4,555.8,522.6,555.8,512.1,553.9z M501.6,495c38.5,29.6,82.4-14.3,52.8-52.8C515.9,412.6,472,456.5,501.6,495L501.6,495z"/>
</svg>
