<?xml version="1.0" encoding="utf-8"?>
<!-- Generator: Adobe Illustrator 25.0.1, SVG Export Plug-In . SVG Version: 6.00 Build 0)  -->
<svg version="1.1" id="Layer_1" focusable="false" xmlns="http://www.w3.org/2000/svg" xmlns:xlink="http://www.w3.org/1999/xlink"
	 x="0px" y="0px" viewBox="0 0 640 640" style="enable-background:new 0 0 640 640;" xml:space="preserve">
<style type="text/css">
	.st0{fill:#E5E5E5;}
</style>
<path class="st0" d="M512,480v16c0,26.5-21.5,48-48,48H80c-26.5,0-48-21.5-48-48V240c0-26.5,21.5-48,48-48h16v48H86
	c-3.3,0-6,2.7-6,6v244c0,3.3,2.7,6,6,6h372c3.3,0,6-2.7,6-6v-10H512z M554,144H182c-3.3,0-6,2.7-6,6v244c0,3.3,2.7,6,6,6h372
	c3.3,0,6-2.7,6-6V150C560,146.7,557.3,144,554,144z M560,96c26.5,0,48,21.5,48,48v256c0,26.5-21.5,48-48,48H176
	c-26.5,0-48-21.5-48-48V144c0-26.5,21.5-48,48-48H560z M296,208c0,22.1-17.9,40-40,40s-40-17.9-40-40s17.9-40,40-40
	S296,185.9,296,208z M224,304l39.5-39.5c4.7-4.7,12.3-4.7,17,0L320,304l103.5-103.5c4.7-4.7,12.3-4.7,17,0L512,272v80H224V304z"/>
</svg>
