<?xml version="1.0" encoding="utf-8"?>
<!-- Generator: Adobe Illustrator 25.0.1, SVG Export Plug-In . SVG Version: 6.00 Build 0)  -->
<svg version="1.1" id="Layer_1" focusable="false" xmlns="http://www.w3.org/2000/svg" xmlns:xlink="http://www.w3.org/1999/xlink"
	 x="0px" y="0px" viewBox="0 0 640 640" style="enable-background:new 0 0 640 640;" xml:space="preserve">
<style type="text/css">
	.st0{fill:#E5E5E5;}
</style>
<path class="st0" d="M320,72C183,72,72,183,72,320s111,248,248,248s248-111,248-248S457,72,320,72z M320,520
	c-110.5,0-200-89.5-200-200s89.5-200,200-200s200,89.5,200,200S430.5,520,320,520z M381.8,415.6l-84.9-61.7
	c-3.1-2.3-4.9-5.9-4.9-9.7V180c0-6.6,5.4-12,12-12h32c6.6,0,12,5.4,12,12v141.7l66.8,48.6c5.4,3.9,6.5,11.4,2.6,16.8L398.6,413
	C394.7,418.3,387.2,419.5,381.8,415.6L381.8,415.6z"/>
</svg>
